name rise49.5252peak65.1548fall88.8305.mot
datacolumns 19
datarows 32
range 12.10328400000000 12.15494800000000
endheader
time	ground_force1_vx	ground_force1_vy	ground_force1_vz	ground_force1_px	ground_force1_py	ground_force1_pz	ground_force2_vx	ground_force2_vy	ground_force2_vz	ground_force2_px	ground_force2_py	ground_force2_pz	ground_torque1_x	ground_torque1_y	ground_torque1_z	ground_torque2_x	ground_torque2_y	ground_torque2_z	
12.10328400000000	-7.58485100000000	43.71384700000000	-10.85307900000000	0.37184500000000	0.00000000000000	0.06708000000000	-45.29534600000000	772.32930299999998	-46.29111100000000	0.19578100000000	0.00000000000000	-0.10506900000000	0.00000000000000	-8.91891500000000	0.00000000000000	0.00000000000000	-25.80931700000000	0.00000000000000	
12.10494800000000	-8.17008700000000	51.28438200000000	-12.17384800000000	0.37527500000000	0.00000000000000	0.06800800000000	-45.81081300000000	769.86620900000003	-45.87429200000000	0.19482200000000	0.00000000000000	-0.10500000000000	0.00000000000000	-10.08236400000000	0.00000000000000	0.00000000000000	-25.68429900000000	0.00000000000000	
12.10661300000000	-8.57373200000000	58.96326800000000	-13.36342900000000	0.37840500000000	0.00000000000000	0.06884700000000	-46.34521800000000	767.31015300000001	-45.44478700000000	0.19385000000000	0.00000000000000	-0.10492900000000	0.00000000000000	-11.15470000000000	0.00000000000000	0.00000000000000	-25.56140700000000	0.00000000000000	
12.10828100000000	-8.77564800000000	66.65266900000000	-14.39323200000000	0.38129000000000	0.00000000000000	0.06961100000000	-46.89833700000000	764.65844000000004	-45.00250800000000	0.19286700000000	0.00000000000000	-0.10485600000000	0.00000000000000	-12.11148700000000	0.00000000000000	0.00000000000000	-25.44065100000000	0.00000000000000	
12.10994700000000	-8.76534900000000	74.27828500000000	-15.24460000000000	0.38397000000000	0.00000000000000	0.07031000000000	-47.46983500000000	761.90826100000004	-44.54736100000000	0.19187400000000	0.00000000000000	-0.10478200000000	0.00000000000000	-12.93615200000000	0.00000000000000	0.00000000000000	-25.32201800000000	0.00000000000000	
12.11161200000000	-8.54168400000000	81.79167000000000	-15.90889900000000	0.38648000000000	0.00000000000000	0.07095300000000	-48.05927000000000	759.05669699999999	-44.07924600000000	0.19087100000000	0.00000000000000	-0.10470600000000	0.00000000000000	-13.62017400000000	0.00000000000000	0.00000000000000	-25.20546600000000	0.00000000000000	
12.11327800000000	-8.11181600000000	89.17004300000001	-16.38677300000000	0.38884600000000	0.00000000000000	0.07154700000000	-48.66609000000000	756.10072800000000	-43.59806500000000	0.18985900000000	0.00000000000000	-0.10462900000000	0.00000000000000	-14.16258400000000	0.00000000000000	0.00000000000000	-25.09093000000000	0.00000000000000	
12.11494700000000	-7.48968900000000	96.41399800000001	-16.68676500000000	0.39109100000000	0.00000000000000	0.07209900000000	-49.28962800000000	753.03724399999999	-43.10371800000000	0.18883900000000	0.00000000000000	-0.10454900000000	0.00000000000000	-14.56893500000000	0.00000000000000	0.00000000000000	-24.97832100000000	0.00000000000000	
12.11661200000000	-6.69420300000000	103.54369100000000	-16.82353600000000	0.39323300000000	0.00000000000000	0.07261200000000	-49.92910500000000	749.86305300000004	-42.59610700000000	0.18781300000000	0.00000000000000	-0.10446700000000	0.00000000000000	-14.84990500000000	0.00000000000000	0.00000000000000	-24.86752100000000	0.00000000000000	
12.11827800000000	-5.74729200000000	110.59406600000000	-16.81588300000000	0.39528500000000	0.00000000000000	0.07309200000000	-50.58362700000000	746.57489399999997	-42.07514100000000	0.18678200000000	0.00000000000000	-0.10438400000000	0.00000000000000	-15.01973400000000	0.00000000000000	0.00000000000000	-24.75839100000000	0.00000000000000	
12.11994600000000	-4.67209000000000	117.60969400000000	-16.68476700000000	0.39726200000000	0.00000000000000	0.07354200000000	-51.25218400000000	743.16944300000000	-41.54073400000000	0.18574700000000	0.00000000000000	-0.10429800000000	0.00000000000000	-15.09462900000000	0.00000000000000	0.00000000000000	-24.65076400000000	0.00000000000000	
12.12161900000000	-3.49130400000000	124.63970800000000	-16.45151100000000	0.39917300000000	0.00000000000000	0.07396400000000	-51.93365600000000	739.64333099999999	-40.99281100000000	0.18470900000000	0.00000000000000	-0.10420900000000	0.00000000000000	-15.09128900000000	0.00000000000000	0.00000000000000	-24.54445300000000	0.00000000000000	
12.12327900000000	-2.22590300000000	131.73322600000000	-16.13627000000000	0.40102600000000	0.00000000000000	0.07436200000000	-52.62680500000000	735.99315600000000	-40.43130900000000	0.18367000000000	0.00000000000000	-0.10411900000000	0.00000000000000	-15.02563800000000	0.00000000000000	0.00000000000000	-24.43924300000000	0.00000000000000	
12.12495100000000	-0.89416100000000	138.93552700000001	-15.75686200000000	0.40282800000000	0.00000000000000	0.07473700000000	-53.33028400000000	732.21549200000004	-39.85618000000000	0.18263100000000	0.00000000000000	-0.10402600000000	0.00000000000000	-14.91184200000000	0.00000000000000	0.00000000000000	-24.33489800000000	0.00000000000000	
12.12661500000000	0.48893100000000	146.28515600000000	-15.32797500000000	0.40458700000000	0.00000000000000	0.07509100000000	-54.04263400000000	728.30691100000001	-39.26739400000000	0.18159400000000	0.00000000000000	-0.10393000000000	0.00000000000000	-14.76161500000000	0.00000000000000	0.00000000000000	-24.23115900000000	0.00000000000000	
12.12828100000000	1.91189900000000	153.81200799999999	-14.86075100000000	0.40630500000000	0.00000000000000	0.07542700000000	-54.76228900000000	724.26399000000004	-38.66494000000000	0.18056000000000	0.00000000000000	-0.10383200000000	0.00000000000000	-14.58384500000000	0.00000000000000	0.00000000000000	-24.12774600000000	0.00000000000000	
12.12994700000000	3.36672400000000	161.53636200000000	-14.36271100000000	0.40798900000000	0.00000000000000	0.07574400000000	-55.48757700000000	720.08333600000003	-38.04883200000000	0.17953100000000	0.00000000000000	-0.10373000000000	0.00000000000000	-14.38448700000000	0.00000000000000	0.00000000000000	-24.02435700000000	0.00000000000000	
12.13161900000000	4.84852800000000	169.46876900000001	-13.83796700000000	0.40964000000000	0.00000000000000	0.07604500000000	-56.21672400000000	715.76159399999995	-37.41910800000000	0.17850800000000	0.00000000000000	-0.10362600000000	0.00000000000000	-14.16670300000000	0.00000000000000	0.00000000000000	-23.92067100000000	0.00000000000000	
12.13327800000000	6.35508500000000	177.61063500000000	-13.28764200000000	0.41126100000000	0.00000000000000	0.07633100000000	-56.94785900000000	711.29547400000001	-36.77583200000000	0.17749400000000	0.00000000000000	-0.10351900000000	0.00000000000000	-13.93117400000000	0.00000000000000	0.00000000000000	-23.81634900000000	0.00000000000000	
12.13494700000000	7.88622800000000	185.95534400000000	-12.71044600000000	0.41285500000000	0.00000000000000	0.07660300000000	-57.67901500000000	706.68176100000005	-36.11910000000000	0.17648800000000	0.00000000000000	-0.10340900000000	0.00000000000000	-13.67655300000000	0.00000000000000	0.00000000000000	-23.71103100000000	0.00000000000000	
12.13661200000000	9.44320900000000	194.48972800000001	-12.10332300000000	0.41442400000000	0.00000000000000	0.07686100000000	-58.40813900000000	701.91734199999996	-35.44904000000000	0.17549500000000	0.00000000000000	-0.10329500000000	0.00000000000000	-13.39997900000000	0.00000000000000	0.00000000000000	-23.60434400000000	0.00000000000000	
12.13828700000000	11.02807500000000	203.19570999999999	-11.46210900000000	0.41596900000000	0.00000000000000	0.07710600000000	-59.13309100000000	696.99922200000003	-34.76581200000000	0.17451400000000	0.00000000000000	-0.10317800000000	0.00000000000000	-13.09761400000000	0.00000000000000	0.00000000000000	-23.49589700000000	0.00000000000000	
12.13995700000000	12.64309900000000	212.05197200000001	-10.78215900000000	0.41749100000000	0.00000000000000	0.07733900000000	-59.85165400000000	691.92454499999997	-34.06961300000000	0.17354800000000	0.00000000000000	-0.10305700000000	0.00000000000000	-12.76515800000000	0.00000000000000	0.00000000000000	-23.38528600000000	0.00000000000000	
12.14161400000000	14.29029600000000	221.03551600000000	-10.05889300000000	0.41899100000000	0.00000000000000	0.07756000000000	-60.56153900000000	686.69061399999998	-33.36067600000000	0.17259800000000	0.00000000000000	-0.10293200000000	0.00000000000000	-12.39830500000000	0.00000000000000	0.00000000000000	-23.27209400000000	0.00000000000000	
12.14328600000000	15.97105900000000	230.12303600000001	-9.28824300000000	0.42046900000000	0.00000000000000	0.07777100000000	-61.26039100000000	681.29491299999995	-32.63927400000000	0.17166600000000	0.00000000000000	-0.10280400000000	0.00000000000000	-11.99312000000000	0.00000000000000	0.00000000000000	-23.15589300000000	0.00000000000000	
12.14495500000000	17.68589200000000	239.29201900000001	-8.46697600000000	0.42192600000000	0.00000000000000	0.07797100000000	-61.94579700000000	675.73512900000003	-31.90571800000000	0.17075500000000	0.00000000000000	-0.10267200000000	0.00000000000000	-11.54632300000000	0.00000000000000	0.00000000000000	-23.03624400000000	0.00000000000000	
12.14661900000000	19.43427400000000	248.52157199999999	-7.59291300000000	0.42336100000000	0.00000000000000	0.07816100000000	-62.61529000000000	670.00916500000005	-31.16035900000000	0.16986400000000	0.00000000000000	-0.10253600000000	0.00000000000000	-11.05547900000000	0.00000000000000	0.00000000000000	-22.91269900000000	0.00000000000000	
12.14828600000000	21.21460900000000	257.79294800000002	-6.66502500000000	0.42477400000000	0.00000000000000	0.07834100000000	-63.26636000000000	664.11516700000004	-30.40359200000000	0.16899700000000	0.00000000000000	-0.10239500000000	0.00000000000000	-10.51909600000000	0.00000000000000	0.00000000000000	-22.78480600000000	0.00000000000000	
12.14995100000000	23.02427000000000	267.08981199999999	-5.68344000000000	0.42616600000000	0.00000000000000	0.07851200000000	-63.89646200000000	658.05153199999995	-29.63585100000000	0.16815500000000	0.00000000000000	-0.10225000000000	0.00000000000000	-9.93664200000000	0.00000000000000	0.00000000000000	-22.65210600000000	0.00000000000000	
12.15161200000000	24.85970900000000	276.39826900000003	-4.64936600000000	0.42753600000000	0.00000000000000	0.07867400000000	-64.50302300000000	651.81692799999996	-28.85761600000000	0.16734000000000	0.00000000000000	-0.10210100000000	0.00000000000000	-9.30849600000000	0.00000000000000	0.00000000000000	-22.51413500000000	0.00000000000000	
12.15327800000000	26.71661000000000	285.70670500000000	-3.56496300000000	0.42888200000000	0.00000000000000	0.07882700000000	-65.08345000000000	645.41030799999999	-28.06940900000000	0.16655300000000	0.00000000000000	-0.10194600000000	0.00000000000000	-8.63585300000000	0.00000000000000	0.00000000000000	-22.37043200000000	0.00000000000000	
12.15494800000000	28.59007200000000	295.00549999999998	-2.43317500000000	0.43020600000000	0.00000000000000	0.07897200000000	-65.63514200000000	638.83091500000000	-27.27179600000000	0.16579600000000	0.00000000000000	-0.10178700000000	0.00000000000000	-7.92058400000000	0.00000000000000	0.00000000000000	-22.22053500000000	0.00000000000000	
